<mxfile host="Electron" modified="2024-05-27T22:26:22.799Z" agent="Mozilla/5.0 (Windows NT 10.0; Win64; x64) AppleWebKit/537.36 (KHTML, like Gecko) draw.io/22.0.0 Chrome/114.0.5735.289 Electron/25.8.3 Safari/537.36" etag="9yFOxdFv77WQ3hwWn3Mo" version="22.0.0" type="device">
  <diagram name="Page-1" id="hG4zzm_N5FTetsfrr58c">
    <mxGraphModel dx="1793" dy="1105" grid="1" gridSize="10" guides="1" tooltips="1" connect="1" arrows="1" fold="1" page="1" pageScale="1" pageWidth="850" pageHeight="1100" math="0" shadow="0">
      <root>
        <mxCell id="0" />
        <mxCell id="1" parent="0" />
        <mxCell id="ei0V7CZg0UjQVGs0gulO-1" value="Street Entrance" style="rounded=0;whiteSpace=wrap;html=1;" parent="1" vertex="1">
          <mxGeometry x="30" y="260" width="120" height="60" as="geometry" />
        </mxCell>
        <mxCell id="jUiN87D1n8LLVdIQf6-M-7" style="edgeStyle=orthogonalEdgeStyle;rounded=0;orthogonalLoop=1;jettySize=auto;html=1;exitX=0.5;exitY=1;exitDx=0;exitDy=0;entryX=0.5;entryY=0;entryDx=0;entryDy=0;endArrow=none;endFill=0;" parent="1" source="ei0V7CZg0UjQVGs0gulO-8" target="jUiN87D1n8LLVdIQf6-M-3" edge="1">
          <mxGeometry relative="1" as="geometry" />
        </mxCell>
        <mxCell id="jUiN87D1n8LLVdIQf6-M-11" style="edgeStyle=orthogonalEdgeStyle;rounded=0;orthogonalLoop=1;jettySize=auto;html=1;exitX=1;exitY=0.75;exitDx=0;exitDy=0;entryX=0;entryY=0.5;entryDx=0;entryDy=0;endArrow=none;endFill=0;" parent="1" source="ei0V7CZg0UjQVGs0gulO-8" target="ei0V7CZg0UjQVGs0gulO-21" edge="1">
          <mxGeometry relative="1" as="geometry">
            <Array as="points">
              <mxPoint x="290" y="480" />
            </Array>
          </mxGeometry>
        </mxCell>
        <mxCell id="ei0V7CZg0UjQVGs0gulO-8" value="Dock 1" style="rounded=1;whiteSpace=wrap;html=1;" parent="1" vertex="1">
          <mxGeometry x="170" y="260" width="120" height="310" as="geometry" />
        </mxCell>
        <mxCell id="ei0V7CZg0UjQVGs0gulO-16" value="" style="edgeStyle=orthogonalEdgeStyle;rounded=0;orthogonalLoop=1;jettySize=auto;html=1;endArrow=none;endFill=0;" parent="1" source="ei0V7CZg0UjQVGs0gulO-9" target="ei0V7CZg0UjQVGs0gulO-15" edge="1">
          <mxGeometry relative="1" as="geometry">
            <Array as="points">
              <mxPoint x="480" y="290" />
              <mxPoint x="480" y="290" />
            </Array>
          </mxGeometry>
        </mxCell>
        <mxCell id="ei0V7CZg0UjQVGs0gulO-9" value="Pier 1" style="rounded=1;whiteSpace=wrap;html=1;" parent="1" vertex="1">
          <mxGeometry x="330" y="260" width="120" height="60" as="geometry" />
        </mxCell>
        <mxCell id="ei0V7CZg0UjQVGs0gulO-18" value="" style="edgeStyle=orthogonalEdgeStyle;rounded=0;orthogonalLoop=1;jettySize=auto;html=1;endArrow=none;endFill=0;" parent="1" source="ei0V7CZg0UjQVGs0gulO-15" target="ei0V7CZg0UjQVGs0gulO-17" edge="1">
          <mxGeometry relative="1" as="geometry">
            <Array as="points">
              <mxPoint x="630" y="290" />
              <mxPoint x="630" y="290" />
            </Array>
          </mxGeometry>
        </mxCell>
        <mxCell id="ei0V7CZg0UjQVGs0gulO-15" value="Stone Basin 1" style="whiteSpace=wrap;html=1;rounded=1;" parent="1" vertex="1">
          <mxGeometry x="500" y="260" width="120" height="260" as="geometry" />
        </mxCell>
        <mxCell id="ei0V7CZg0UjQVGs0gulO-17" value="Tugboat Wreck" style="whiteSpace=wrap;html=1;rounded=1;" parent="1" vertex="1">
          <mxGeometry x="660" y="260" width="120" height="60" as="geometry" />
        </mxCell>
        <mxCell id="ei0V7CZg0UjQVGs0gulO-19" value="Destroyed Pier" style="whiteSpace=wrap;html=1;rounded=1;" parent="1" vertex="1">
          <mxGeometry x="330" y="350" width="120" height="60" as="geometry" />
        </mxCell>
        <mxCell id="ei0V7CZg0UjQVGs0gulO-21" value="Pier 2" style="whiteSpace=wrap;html=1;rounded=1;" parent="1" vertex="1">
          <mxGeometry x="330" y="450" width="120" height="60" as="geometry" />
        </mxCell>
        <mxCell id="ei0V7CZg0UjQVGs0gulO-23" value="Shipping Containers 1" style="whiteSpace=wrap;html=1;rounded=1;" parent="1" vertex="1">
          <mxGeometry x="10" y="350" width="130" height="220" as="geometry" />
        </mxCell>
        <mxCell id="B_Ww4DbN7rBJRGA3p_TU-4" value="" style="edgeStyle=orthogonalEdgeStyle;rounded=0;orthogonalLoop=1;jettySize=auto;html=1;endArrow=none;endFill=0;" parent="1" source="ei0V7CZg0UjQVGs0gulO-30" target="D6g7ijftVTzOeYGlhxwc-30" edge="1">
          <mxGeometry relative="1" as="geometry" />
        </mxCell>
        <mxCell id="ibRmky1MhEv8J4u7FbmF-1" value="" style="edgeStyle=orthogonalEdgeStyle;rounded=0;orthogonalLoop=1;jettySize=auto;html=1;endArrow=none;endFill=0;" edge="1" parent="1" source="ei0V7CZg0UjQVGs0gulO-30" target="ei0V7CZg0UjQVGs0gulO-37">
          <mxGeometry relative="1" as="geometry">
            <Array as="points">
              <mxPoint x="720" y="580" />
              <mxPoint x="720" y="580" />
            </Array>
          </mxGeometry>
        </mxCell>
        <mxCell id="ei0V7CZg0UjQVGs0gulO-30" value="Stone Basin 2" style="whiteSpace=wrap;html=1;rounded=1;" parent="1" vertex="1">
          <mxGeometry x="660" y="450" width="120" height="60" as="geometry" />
        </mxCell>
        <mxCell id="ei0V7CZg0UjQVGs0gulO-37" value="Ruined Yacht" style="whiteSpace=wrap;html=1;rounded=1;" parent="1" vertex="1">
          <mxGeometry x="310" y="600" width="540" height="140" as="geometry" />
        </mxCell>
        <mxCell id="jUiN87D1n8LLVdIQf6-M-3" value="Dock 2" style="rounded=1;whiteSpace=wrap;html=1;" parent="1" vertex="1">
          <mxGeometry x="170" y="590" width="120" height="350" as="geometry" />
        </mxCell>
        <mxCell id="jUiN87D1n8LLVdIQf6-M-4" value="Shipping Containers 2" style="whiteSpace=wrap;html=1;rounded=1;" parent="1" vertex="1">
          <mxGeometry x="10" y="590" width="140" height="220" as="geometry" />
        </mxCell>
        <mxCell id="jUiN87D1n8LLVdIQf6-M-5" style="edgeStyle=orthogonalEdgeStyle;rounded=0;orthogonalLoop=1;jettySize=auto;html=1;exitX=1;exitY=0.25;exitDx=0;exitDy=0;entryX=0.008;entryY=0.468;entryDx=0;entryDy=0;entryPerimeter=0;endArrow=none;endFill=0;" parent="1" source="ei0V7CZg0UjQVGs0gulO-23" target="ei0V7CZg0UjQVGs0gulO-8" edge="1">
          <mxGeometry relative="1" as="geometry" />
        </mxCell>
        <mxCell id="jUiN87D1n8LLVdIQf6-M-6" style="edgeStyle=orthogonalEdgeStyle;rounded=0;orthogonalLoop=1;jettySize=auto;html=1;exitX=1;exitY=0.75;exitDx=0;exitDy=0;entryX=0;entryY=0.829;entryDx=0;entryDy=0;entryPerimeter=0;endArrow=none;endFill=0;" parent="1" source="ei0V7CZg0UjQVGs0gulO-23" target="ei0V7CZg0UjQVGs0gulO-8" edge="1">
          <mxGeometry relative="1" as="geometry" />
        </mxCell>
        <mxCell id="jUiN87D1n8LLVdIQf6-M-9" style="edgeStyle=orthogonalEdgeStyle;rounded=0;orthogonalLoop=1;jettySize=auto;html=1;exitX=1;exitY=0.25;exitDx=0;exitDy=0;entryX=-0.025;entryY=0.16;entryDx=0;entryDy=0;entryPerimeter=0;endArrow=none;endFill=0;" parent="1" source="jUiN87D1n8LLVdIQf6-M-4" target="jUiN87D1n8LLVdIQf6-M-3" edge="1">
          <mxGeometry relative="1" as="geometry" />
        </mxCell>
        <mxCell id="jUiN87D1n8LLVdIQf6-M-10" style="edgeStyle=orthogonalEdgeStyle;rounded=0;orthogonalLoop=1;jettySize=auto;html=1;exitX=1;exitY=0.75;exitDx=0;exitDy=0;entryX=0.017;entryY=0.469;entryDx=0;entryDy=0;entryPerimeter=0;endArrow=none;endFill=0;" parent="1" source="jUiN87D1n8LLVdIQf6-M-4" target="jUiN87D1n8LLVdIQf6-M-3" edge="1">
          <mxGeometry relative="1" as="geometry" />
        </mxCell>
        <mxCell id="jUiN87D1n8LLVdIQf6-M-12" style="edgeStyle=orthogonalEdgeStyle;rounded=0;orthogonalLoop=1;jettySize=auto;html=1;exitX=0;exitY=0.5;exitDx=0;exitDy=0;entryX=1.015;entryY=0.399;entryDx=0;entryDy=0;entryPerimeter=0;endArrow=none;endFill=0;" parent="1" source="ei0V7CZg0UjQVGs0gulO-19" target="ei0V7CZg0UjQVGs0gulO-8" edge="1">
          <mxGeometry relative="1" as="geometry" />
        </mxCell>
        <mxCell id="jUiN87D1n8LLVdIQf6-M-13" style="edgeStyle=orthogonalEdgeStyle;rounded=0;orthogonalLoop=1;jettySize=auto;html=1;exitX=0;exitY=0.5;exitDx=0;exitDy=0;entryX=0.985;entryY=0.095;entryDx=0;entryDy=0;entryPerimeter=0;endArrow=none;endFill=0;" parent="1" source="ei0V7CZg0UjQVGs0gulO-9" target="ei0V7CZg0UjQVGs0gulO-8" edge="1">
          <mxGeometry relative="1" as="geometry" />
        </mxCell>
        <mxCell id="D6g7ijftVTzOeYGlhxwc-1" value="" style="strokeWidth=2;html=1;shape=mxgraph.flowchart.annotation_2;align=left;labelPosition=right;pointerEvents=1;rotation=90;" parent="1" vertex="1">
          <mxGeometry x="567.5" y="502.5" width="110" height="615" as="geometry" />
        </mxCell>
        <mxCell id="XZOc8OdnycMJjuhssAiU-4" value="" style="edgeStyle=orthogonalEdgeStyle;rounded=0;orthogonalLoop=1;jettySize=auto;html=1;endArrow=none;endFill=0;" parent="1" source="D6g7ijftVTzOeYGlhxwc-2" target="D6g7ijftVTzOeYGlhxwc-8" edge="1">
          <mxGeometry relative="1" as="geometry" />
        </mxCell>
        <mxCell id="D6g7ijftVTzOeYGlhxwc-2" value="Enter/Exit" style="rounded=0;whiteSpace=wrap;html=1;" parent="1" vertex="1">
          <mxGeometry x="320" y="900" width="120" height="60" as="geometry" />
        </mxCell>
        <mxCell id="D6g7ijftVTzOeYGlhxwc-7" value="" style="edgeStyle=orthogonalEdgeStyle;rounded=0;orthogonalLoop=1;jettySize=auto;html=1;endArrow=none;endFill=0;" parent="1" source="D6g7ijftVTzOeYGlhxwc-5" target="D6g7ijftVTzOeYGlhxwc-6" edge="1">
          <mxGeometry relative="1" as="geometry" />
        </mxCell>
        <mxCell id="D6g7ijftVTzOeYGlhxwc-9" value="" style="edgeStyle=orthogonalEdgeStyle;rounded=0;orthogonalLoop=1;jettySize=auto;html=1;endArrow=none;endFill=0;" parent="1" source="D6g7ijftVTzOeYGlhxwc-5" target="D6g7ijftVTzOeYGlhxwc-8" edge="1">
          <mxGeometry relative="1" as="geometry" />
        </mxCell>
        <mxCell id="XZOc8OdnycMJjuhssAiU-3" value="" style="edgeStyle=orthogonalEdgeStyle;rounded=0;orthogonalLoop=1;jettySize=auto;html=1;endArrow=none;endFill=0;" parent="1" source="D6g7ijftVTzOeYGlhxwc-5" target="D6g7ijftVTzOeYGlhxwc-14" edge="1">
          <mxGeometry relative="1" as="geometry" />
        </mxCell>
        <mxCell id="D6g7ijftVTzOeYGlhxwc-5" value="Upper Deck 2" style="rounded=1;whiteSpace=wrap;html=1;" parent="1" vertex="1">
          <mxGeometry x="630" y="900" width="120" height="60" as="geometry" />
        </mxCell>
        <mxCell id="D6g7ijftVTzOeYGlhxwc-6" value="Upper Deck 1" style="whiteSpace=wrap;html=1;rounded=1;" parent="1" vertex="1">
          <mxGeometry x="767.5" y="900" width="120" height="60" as="geometry" />
        </mxCell>
        <mxCell id="D6g7ijftVTzOeYGlhxwc-8" value="Upper Deck 3" style="whiteSpace=wrap;html=1;rounded=1;" parent="1" vertex="1">
          <mxGeometry x="480" y="900" width="120" height="60" as="geometry" />
        </mxCell>
        <mxCell id="D6g7ijftVTzOeYGlhxwc-15" value="" style="edgeStyle=orthogonalEdgeStyle;rounded=0;orthogonalLoop=1;jettySize=auto;html=1;endArrow=none;endFill=0;" parent="1" source="D6g7ijftVTzOeYGlhxwc-10" target="D6g7ijftVTzOeYGlhxwc-14" edge="1">
          <mxGeometry relative="1" as="geometry" />
        </mxCell>
        <mxCell id="mVStLimd9nVLuTpqJdAM-2" value="" style="edgeStyle=orthogonalEdgeStyle;rounded=0;orthogonalLoop=1;jettySize=auto;html=1;endArrow=none;endFill=0;" parent="1" source="D6g7ijftVTzOeYGlhxwc-10" target="mVStLimd9nVLuTpqJdAM-1" edge="1">
          <mxGeometry relative="1" as="geometry" />
        </mxCell>
        <mxCell id="D6g7ijftVTzOeYGlhxwc-10" value="Lower Deck 1" style="whiteSpace=wrap;html=1;rounded=1;" parent="1" vertex="1">
          <mxGeometry x="767.5" y="1010" width="120" height="60" as="geometry" />
        </mxCell>
        <mxCell id="D6g7ijftVTzOeYGlhxwc-17" value="" style="edgeStyle=orthogonalEdgeStyle;rounded=0;orthogonalLoop=1;jettySize=auto;html=1;endArrow=none;endFill=0;" parent="1" source="D6g7ijftVTzOeYGlhxwc-14" target="D6g7ijftVTzOeYGlhxwc-16" edge="1">
          <mxGeometry relative="1" as="geometry" />
        </mxCell>
        <mxCell id="D6g7ijftVTzOeYGlhxwc-14" value="Lower Deck 2" style="whiteSpace=wrap;html=1;rounded=1;" parent="1" vertex="1">
          <mxGeometry x="630" y="1010" width="120" height="60" as="geometry" />
        </mxCell>
        <mxCell id="D6g7ijftVTzOeYGlhxwc-16" value="Lower Deck 3" style="whiteSpace=wrap;html=1;rounded=1;" parent="1" vertex="1">
          <mxGeometry x="480" y="1010" width="120" height="60" as="geometry" />
        </mxCell>
        <mxCell id="XZOc8OdnycMJjuhssAiU-2" value="" style="edgeStyle=orthogonalEdgeStyle;rounded=0;orthogonalLoop=1;jettySize=auto;html=1;endArrow=none;endFill=0;" parent="1" source="D6g7ijftVTzOeYGlhxwc-22" target="D6g7ijftVTzOeYGlhxwc-5" edge="1">
          <mxGeometry relative="1" as="geometry" />
        </mxCell>
        <mxCell id="D6g7ijftVTzOeYGlhxwc-22" value="Bridge" style="whiteSpace=wrap;html=1;rounded=1;" parent="1" vertex="1">
          <mxGeometry x="630" y="820" width="120" height="60" as="geometry" />
        </mxCell>
        <mxCell id="LB76PLS6bhr0vWrkOZ_N-8" value="" style="edgeStyle=orthogonalEdgeStyle;rounded=0;orthogonalLoop=1;jettySize=auto;html=1;endArrow=none;endFill=0;" parent="1" source="D6g7ijftVTzOeYGlhxwc-24" target="D6g7ijftVTzOeYGlhxwc-33" edge="1">
          <mxGeometry relative="1" as="geometry" />
        </mxCell>
        <mxCell id="D6g7ijftVTzOeYGlhxwc-24" value="Crashed Federation Spacecraft Exterior" style="whiteSpace=wrap;html=1;rounded=1;" parent="1" vertex="1">
          <mxGeometry x="1170" y="450" width="120" height="60" as="geometry" />
        </mxCell>
        <mxCell id="B_Ww4DbN7rBJRGA3p_TU-7" value="" style="edgeStyle=orthogonalEdgeStyle;rounded=0;orthogonalLoop=1;jettySize=auto;html=1;endArrow=none;endFill=0;" parent="1" source="D6g7ijftVTzOeYGlhxwc-26" target="ei0V7CZg0UjQVGs0gulO-15" edge="1">
          <mxGeometry relative="1" as="geometry">
            <Array as="points">
              <mxPoint x="630" y="380" />
              <mxPoint x="630" y="380" />
            </Array>
          </mxGeometry>
        </mxCell>
        <mxCell id="D6g7ijftVTzOeYGlhxwc-26" value="Geologists Tent Exterior" style="whiteSpace=wrap;html=1;rounded=1;" parent="1" vertex="1">
          <mxGeometry x="660" y="350" width="120" height="60" as="geometry" />
        </mxCell>
        <mxCell id="D6g7ijftVTzOeYGlhxwc-38" value="" style="edgeStyle=orthogonalEdgeStyle;rounded=0;orthogonalLoop=1;jettySize=auto;html=1;endArrow=none;endFill=0;" parent="1" source="D6g7ijftVTzOeYGlhxwc-28" target="D6g7ijftVTzOeYGlhxwc-26" edge="1">
          <mxGeometry relative="1" as="geometry" />
        </mxCell>
        <mxCell id="D6g7ijftVTzOeYGlhxwc-28" value="Geologists Tent Interior" style="whiteSpace=wrap;html=1;rounded=1;" parent="1" vertex="1">
          <mxGeometry x="830" y="350" width="120" height="60" as="geometry" />
        </mxCell>
        <mxCell id="B_Ww4DbN7rBJRGA3p_TU-5" value="" style="edgeStyle=orthogonalEdgeStyle;rounded=0;orthogonalLoop=1;jettySize=auto;html=1;endArrow=none;endFill=0;" parent="1" source="D6g7ijftVTzOeYGlhxwc-30" target="LB76PLS6bhr0vWrkOZ_N-3" edge="1">
          <mxGeometry relative="1" as="geometry" />
        </mxCell>
        <mxCell id="D6g7ijftVTzOeYGlhxwc-30" value="Stone Basin 3" style="whiteSpace=wrap;html=1;rounded=1;" parent="1" vertex="1">
          <mxGeometry x="830" y="450" width="120" height="60" as="geometry" />
        </mxCell>
        <mxCell id="D6g7ijftVTzOeYGlhxwc-33" value="Crashed Federation Spacecraft Interior" style="whiteSpace=wrap;html=1;rounded=1;" parent="1" vertex="1">
          <mxGeometry x="1170" y="540" width="120" height="60" as="geometry" />
        </mxCell>
        <mxCell id="B_Ww4DbN7rBJRGA3p_TU-6" value="" style="edgeStyle=orthogonalEdgeStyle;rounded=0;orthogonalLoop=1;jettySize=auto;html=1;endArrow=none;endFill=0;" parent="1" source="LB76PLS6bhr0vWrkOZ_N-3" target="D6g7ijftVTzOeYGlhxwc-24" edge="1">
          <mxGeometry relative="1" as="geometry" />
        </mxCell>
        <mxCell id="LB76PLS6bhr0vWrkOZ_N-3" value="Stone Basin 4" style="whiteSpace=wrap;html=1;rounded=1;" parent="1" vertex="1">
          <mxGeometry x="1000" y="450" width="120" height="60" as="geometry" />
        </mxCell>
        <mxCell id="LB76PLS6bhr0vWrkOZ_N-10" value="" style="edgeStyle=orthogonalEdgeStyle;rounded=0;orthogonalLoop=1;jettySize=auto;html=1;endArrow=none;endFill=0;" parent="1" source="LB76PLS6bhr0vWrkOZ_N-9" target="ei0V7CZg0UjQVGs0gulO-17" edge="1">
          <mxGeometry relative="1" as="geometry" />
        </mxCell>
        <mxCell id="LB76PLS6bhr0vWrkOZ_N-9" value="Tugboat Interior" style="whiteSpace=wrap;html=1;rounded=1;" parent="1" vertex="1">
          <mxGeometry x="660" y="170" width="120" height="60" as="geometry" />
        </mxCell>
        <mxCell id="XZOc8OdnycMJjuhssAiU-5" style="edgeStyle=orthogonalEdgeStyle;rounded=0;orthogonalLoop=1;jettySize=auto;html=1;exitX=0;exitY=0.5;exitDx=0;exitDy=0;entryX=1.026;entryY=0.224;entryDx=0;entryDy=0;entryPerimeter=0;endArrow=none;endFill=0;" parent="1" source="ei0V7CZg0UjQVGs0gulO-37" target="jUiN87D1n8LLVdIQf6-M-3" edge="1">
          <mxGeometry relative="1" as="geometry" />
        </mxCell>
        <mxCell id="mVStLimd9nVLuTpqJdAM-1" value="Enter/Exit" style="rounded=0;whiteSpace=wrap;html=1;" parent="1" vertex="1">
          <mxGeometry x="940" y="1010" width="120" height="60" as="geometry" />
        </mxCell>
        <mxCell id="B_Ww4DbN7rBJRGA3p_TU-1" style="edgeStyle=orthogonalEdgeStyle;rounded=0;orthogonalLoop=1;jettySize=auto;html=1;exitX=1;exitY=0.5;exitDx=0;exitDy=0;entryX=0.017;entryY=0.846;entryDx=0;entryDy=0;entryPerimeter=0;endArrow=none;endFill=0;" parent="1" source="ei0V7CZg0UjQVGs0gulO-21" target="ei0V7CZg0UjQVGs0gulO-15" edge="1">
          <mxGeometry relative="1" as="geometry" />
        </mxCell>
        <mxCell id="B_Ww4DbN7rBJRGA3p_TU-3" style="edgeStyle=orthogonalEdgeStyle;rounded=0;orthogonalLoop=1;jettySize=auto;html=1;exitX=0;exitY=0.5;exitDx=0;exitDy=0;entryX=1.008;entryY=0.881;entryDx=0;entryDy=0;entryPerimeter=0;endArrow=none;endFill=0;" parent="1" source="ei0V7CZg0UjQVGs0gulO-30" target="ei0V7CZg0UjQVGs0gulO-15" edge="1">
          <mxGeometry relative="1" as="geometry">
            <Array as="points">
              <mxPoint x="621" y="480" />
            </Array>
          </mxGeometry>
        </mxCell>
      </root>
    </mxGraphModel>
  </diagram>
</mxfile>
